<?xml version="1.0" encoding="UTF-8"?>
<svg width="377px" height="384px" viewBox="0 0 377 384" version="1.1" xmlns="http://www.w3.org/2000/svg" xmlns:xlink="http://www.w3.org/1999/xlink">
    <!-- Generator: Sketch 59 (86127) - https://sketch.com -->
    <title>Freddys_Logo</title>
    <desc>Created with Sketch.</desc>
    <g id="Freddys_Logo" stroke="none" stroke-width="1" fill="none" fill-rule="evenodd">
        <g id="Freddys-Logo" fill-rule="nonzero">
            <g id="Pumpkin">
                <g id="Body">
                    <path d="M179.980312,70.5257666 C179.980312,70.5257666 184.694083,31.7801294 203.120638,16.5430811 C221.547194,1.30603271 234.402931,0 234.402931,0 L254.972109,22.2025562 C254.972109,22.2025562 201.835065,38.7456372 198.406868,88.8102246 C195.407196,139.310156 179.980312,70.5257666 179.980312,70.5257666 Z" id="Stem" fill="#68AA00"></path>
                    <path d="M367.45351,142.368961 C383.483965,191.102963 373.519088,249.325001 340.591665,294.177535 C328.027254,311.859783 312.86331,325.660563 296.832854,334.717324 C280.802399,344.20536 263.905432,348.949378 247.008466,348.949378 C238.343355,348.949378 229.244988,347.655555 220.579877,344.636635 L217.547088,343.774086 L214.947555,345.499183 C199.350355,355.849768 178.120833,355.418494 162.523633,344.636635 L159.924099,342.911537 L156.89131,343.774086 C147.359688,347.224281 137.828066,348.949378 127.863188,348.949378 C94.0692551,348.949378 59.8420663,328.679483 34.2799886,293.74626 C1.78582201,248.893727 -8.61231129,190.671689 7.41814421,141.937686 C27.7811553,82.421825 73.2729885,69.4835942 107.933433,69.4835942 C135.228533,69.4835942 156.89131,77.2465327 157.324566,77.2465327 L160.357355,78.1090814 L162.956888,76.383984 C178.554088,65.602125 199.78361,65.1708507 215.38081,75.5214353 L217.980344,77.2465327 L220.579877,76.383984 C227.511966,74.2276122 245.275443,69.4835942 266.938221,69.4835942 C302.031921,69.4835942 347.523754,82.421825 367.45351,142.368961 Z" fill="#F27503"></path>
                    <path d="M217.242352,344.104126 L220.316475,344.964595 C229.099683,347.546003 237.882892,349.266941 247.105261,349.266941 C264.232517,349.266941 281.798933,344.104126 297.608708,335.069201 C313.857644,325.604041 328.789098,311.836535 341.96391,294.627153 C374.900941,249.88276 385.440791,191.801096 369.191856,143.184592 C348.551316,82.9517552 302.439473,70.0447187 267.30664,70.0447187 C245.348619,70.0447187 226.903881,74.7772987 220.316475,76.9284715 L217.242352,77.7889406 C217.242352,77.7889406 269.063281,95.8587916 294.534585,134.149666 C324.397494,178.89406 341.52475,294.196919 217.242352,344.104126 Z" id="Shadow" fill="#D35C02"></path>
                </g>
                <g id="Face" transform="translate(48.744668, 131.938144)" fill="#231F20">
                    <polygon id="Mouth" points="231.543326 138.218905 216.776601 122.674575 168.567589 154.195021 140.337086 130.878527 112.106584 154.195021 63.8975712 122.674575 48.6965313 138.218905 0.487519066 64.3833376 48.6965313 95.0402105 63.8975712 79.4958806 112.106584 111.016327 140.337086 87.6998325 168.567589 111.016327 216.776601 79.4958806 231.543326 95.0402105 280.186653 64.3833376"></polygon>
                    <path d="M37.4958984,2.70103093 L116.237285,35.2166047 C115.807004,35.6388849 64.1733081,86.3125064 37.4958984,2.70103093 Z" id="Left-eye"></path>
                    <path d="M247.178681,0.0470833333 L167.698958,33.2946778 C167.698958,33.7264648 220.251125,85.5408978 247.178681,0.0470833333 Z" id="Right-eye"></path>
                </g>
            </g>
            <g id="Bat" transform="translate(215.000000, 223.000000)">
                <path d="M161.498657,4.02406304 C160.486617,1.5856321 158.090348,0 155.438226,0 C124.141962,0 97.7327059,23.0742504 93.4081376,52.999579 L73.5797647,46.4349404 C71.2219828,45.6390818 68.6210314,46.2628159 66.8654877,48.0075328 C65.1099439,49.7522497 64.4950225,52.3371603 65.2831365,54.6804012 L70.4085022,69.9742748 L55.019722,64.8805186 C52.6685004,64.0781401 50.0609887,64.7023089 48.3054449,66.453111 C46.5499011,68.1978279 45.9345423,70.7827386 46.7230938,73.1259794 L53.3284694,92.8320656 C23.2174383,97.1299631 0,123.376347 0,154.479599 C0,157.115364 1.59503443,159.496855 4.04903447,160.502653 C6.46892082,161.506279 9.30735609,160.969041 11.1989173,159.089146 C20.8793374,149.468427 34.9416193,145.75471 47.9341303,150.033483 C49.2496948,150.226036 53.7960021,153.197792 57.5826235,149.434959 C65.0207234,142.042732 77.9939908,142.055337 85.4189701,149.434959 C87.9814342,151.98162 92.1332472,151.98162 94.6957113,149.434959 C104.382254,139.81424 118.47034,136.529096 131.430924,140.813954 L134.371701,141.788022 C136.735606,142.583881 139.330434,141.960147 141.085978,140.21543 C142.841522,138.470713 143.456443,135.885802 142.668329,133.542561 L141.688216,130.619921 C137.363648,117.720144 140.682299,103.731982 150.362719,94.1112639 C152.925183,91.5646031 152.925183,87.4383955 150.362719,84.8917347 C146.646949,81.198881 144.596628,76.2833346 144.596628,71.0561384 C144.596628,65.8350274 146.646949,60.9199157 150.362719,57.227062 C154.126598,53.5007396 151.158705,48.9476979 150.964957,47.6380736 C146.640389,34.7382958 150.402956,20.7501345 160.076815,11.1294161 C161.953507,9.26429894 162.517695,6.46292864 161.498657,4.02406304 L161.498657,4.02406304 Z" fill="#575F64"></path>
                <path d="M142.181331,129.487698 C137.961799,116.699779 141.199846,102.832914 150.645146,93.2956207 C153.145372,90.771043 153.145372,86.6806153 150.645146,84.1560376 C147.019626,80.495206 145.019103,75.6222841 145.019103,70.4404149 C145.019103,65.2645781 147.019626,60.3920871 150.645146,56.7312556 C154.317607,53.0372455 151.421799,48.5236849 151.232757,47.2254169 C147.013225,34.4374979 150.684405,20.5706332 160.123305,11.0333396 C161.954841,9.18396474 162.504899,6.40688616 161.511039,3.98916888 C160.52358,1.57188249 158.185512,0 155.597805,0 C125.061671,0 96.8955034,19.2234043 92.4565605,51.7553191 L75.7275378,46.0322857 C73.4270222,45.2433282 67.5358076,45.5895611 65.8229028,47.3191489 C64.109998,49.0487367 63.574283,52.3898442 64.3432552,54.712766 L68.7821981,69.5 L141.594147,139 C143.306198,137.270412 143.906611,134.707485 143.137639,132.384995 L142.181331,129.487698 Z" id="Bat-shadow" fill="#474F54"></path>
            </g>
        </g>
    </g>
</svg>